<svg class="wave-svg" width="70" height="8" viewBox="0 0 70 8" fill="none" xmlns="http://www.w3.org/2000/svg">
  <path d="M41.196 4.68984C43.4726 6.35752 46.113 7.23853 48.8277 7.23853C51.5424 7.23853 54.1828 6.35752 56.4614 4.68984C60.1716 1.97515 64.7542 1.88082 68.5289 4.41064L69.9254 2.62977C65.3487 -0.475433 59.5673 -0.381107 55.0629 2.91463C51.2158 5.72743 46.4396 5.72554 42.5944 2.91463C37.9571 -0.481092 31.9664 -0.479206 27.331 2.91463C23.4819 5.72743 18.7057 5.72554 14.8625 2.91463C10.3601 -0.382994 4.57668 -0.479206 0 2.63166L1.39647 4.41064C5.17126 1.88082 9.75185 1.97515 13.464 4.68984C18.1014 8.08557 24.0921 8.08368 28.7275 4.68984C30.6501 3.28439 32.8074 2.58072 34.9627 2.58072C37.118 2.58072 39.2753 3.28439 41.196 4.68984Z" fill="#FFCE00"/>
</svg>
